HIERARCHY
ROOT pelvis
{
  OFFSET 0 100 0
  CHANNELS 6 Xposition Yposition Zposition Zrotation Xrotation Yrotation
  JOINT pelvis_right_femur
  {
    OFFSET -10.78128 -3.44521 -0.5502486
    CHANNELS 3 Zrotation Xrotation Yrotation
    JOINT right_femur_tibia
    {
      OFFSET -0.8047443 -44.0398 -0.1307829
      CHANNELS 3 Zrotation Xrotation Yrotation
      JOINT right_tibia_foot
      {
        OFFSET 3.006224 -47.83518 -5
        CHANNELS 3 Zrotation Xrotation Yrotation
        End Site
        {
          OFFSET 0 -5 15
        }
      }
    }
  }
  JOINT pelvis_left_femur
  {
    OFFSET 10.78128 -3.44521 -0.5502486
    CHANNELS 3 Zrotation Xrotation Yrotation
    JOINT left_femur_tibia
    {
      OFFSET 0.8047443 -44.0398 -0.1307829
      CHANNELS 3 Zrotation Xrotation Yrotation
      JOINT left_tibia_foot
      {
        OFFSET -4.370144 -48.10324 -4.275266
        CHANNELS 3 Zrotation Xrotation Yrotation
        End Site
        {
          OFFSET 0 -5 15
        }
      }
    }
  }
  JOINT pelvis_spine1
  {
    OFFSET 0 6.468898 -3.129235
    CHANNELS 3 Zrotation Xrotation Yrotation
    JOINT spine1
    {
      OFFSET 0 23.15396 4.99043
      CHANNELS 3 Zrotation Xrotation Yrotation
      JOINT spine2
      {
        OFFSET 0 20.79997 -5.064912
        CHANNELS 3 Zrotation Xrotation Yrotation
        JOINT neck
        {
          OFFSET 0 14.38658 9.616178
          CHANNELS 3 Zrotation Xrotation Yrotation
          End Site
          {
            OFFSET 0 20 0
          }
        }
      }
      JOINT right_manubrium
      {
        OFFSET -5.722621 16.35077 3.967754
        CHANNELS 3 Zrotation Xrotation Yrotation
        JOINT right_clavicle
        {
          OFFSET -13.16364 1.694482 -4.693211
          CHANNELS 3 Zrotation Xrotation Yrotation
          JOINT right_humerus
          {
            OFFSET -28.5034 -0.3100689 -2.792744
            CHANNELS 3 Zrotation Xrotation Yrotation
            JOINT right_radius
            {
              OFFSET -25.15693 0.02248979 -1.271978
              CHANNELS 3 Zrotation Xrotation Yrotation
              End Site
              {
                OFFSET -15 0 0
              }
            }
          }
        }
      }
      JOINT left_manubrium
      {
        OFFSET 5.722621 16.35077 3.967754
        CHANNELS 3 Zrotation Xrotation Yrotation
        JOINT left_clavicle
        {
          OFFSET 13.16364 1.694482 -4.693211
          CHANNELS 3 Zrotation Xrotation Yrotation
          JOINT left_humerus
          {
            OFFSET 29.39168 -1.063119 -2.237045
            CHANNELS 3 Zrotation Xrotation Yrotation
            JOINT left_radius
            {
              OFFSET 24.59957 -0.9528479 0.9047498
              CHANNELS 3 Zrotation Xrotation Yrotation
              End Site
              {
                OFFSET 15 -0 -0
              }
            }
          }
        }
      }
    }
  }
}
MOTION
Frames: 11
Frame Time: 0.0416666666667
-1177.667 105.1201 2217.552 -3.67631 0.3223031 -78.338 6.615472 -22.02242 -1.173814 -0 10.00021 -0 -12.17815 3.838507 -1.609201 -3.861107 12.87938 -8.510973 -0 37.19809 -0 1.098459 -12.21128 13.75664 -1.757566 -2.23369 5.375885 -0.4374979 13.23448 -5.608931 0.3612854 22.07389 7.07259 7.361818 -16.11603 4.117027 4.852479 -19.30439 12.67847 83.57462 27.4748 -15.14953 -0 0 17.24417 -21.44174 10.19535 6.731126 9.327176 -25.29669 -7.251648 -90.3589 7.168364 16.3857 0 0 -11.25649 22.67586 13.98199 -18.54641
-1183.822 105.9578 2218.575 -4.252203 0.3875288 -78.73654 7.187142 -17.92539 -0.3604288 -0 12.13775 -0 -12.6492 2.257793 -1.818329 -3.389687 9.585115 -8.187732 -0 44.33681 -0 0.3315439 -9.137539 13.42979 -1.713879 -2.365274 5.589579 -0.3221504 13.39697 -5.722806 0.2613671 21.9002 6.958789 7.322065 -16.36862 3.954288 4.943995 -19.81673 12.74919 83.37489 27.34855 -14.99858 -0 0 17.96925 -20.99319 9.927623 6.664184 9.151227 -25.26597 -7.212063 -90.82394 7.097326 17.48124 0 0 -10.26829 22.52542 13.7425 -18.30155
-1189.687 107.0709 2219.513 -5.111408 0.2629653 -79.26667 7.501815 -13.21987 0.1291103 -0 13.31155 -0 -13.10572 0.3091292 -1.856384 -2.81052 5.0968 -7.654477 -0 50.01088 -0 -0.1577867 -6.549934 13.61808 -1.669672 -2.472263 5.794362 -0.2131725 13.52989 -5.80426 0.1760653 21.77295 6.810843 7.230352 -16.61933 3.799751 4.981069 -20.34952 12.80188 83.18696 27.1899 -14.72142 -0 0 18.67917 -20.58623 9.645397 6.685654 8.903441 -25.15004 -7.157735 -91.33249 7.172268 18.68764 0 0 -9.124387 22.17329 13.59662 -17.76872
-1195.168 108.2001 2220.375 -6.034622 0.0391866 -79.93028 7.629603 -8.314967 0.29936 -0 13.12809 -0 -13.36525 -2.048497 -1.757374 -2.070477 -0.3120906 -6.854232 -0 52.91526 -0 -0.1962502 -4.682109 14.23317 -1.625583 -2.549443 5.983999 -0.1212569 13.6312 -5.844511 0.1105233 21.69858 6.633665 7.089459 -16.8465 3.657925 4.957035 -20.88301 12.83478 83.01856 27.00017 -14.31866 -0 0 19.34959 -20.26757 9.381377 6.809195 8.591314 -24.95334 -7.09605 -91.86484 7.382265 19.96046 0 0 -7.877819 21.62295 13.55628 -16.95711
-1200.279 109.0772 2221.202 -6.76532 -0.172158 -80.69354 7.611414 -3.532973 0.2206863 -0 11.67909 -0 -13.32065 -4.819053 -1.582539 -1.130981 -6.147408 -5.833789 -0 52.15867 -0 0.2176764 -3.550281 15.075 -1.579745 -2.599356 6.161028 -0.05225151 13.70833 -5.842824 0.06557727 21.67122 6.430899 6.905203 -17.03785 3.527678 4.872618 -21.41427 12.85052 82.87252 26.77577 -13.80295 -0 0 19.98502 -20.06107 9.16028 7.034104 8.224599 -24.6892 -7.034511 -92.41131 7.697429 21.28057 0 0 -6.570365 20.89331 13.61188 -15.89735
-1205.121 109.4967 2222.058 -7.127541 -0.2982066 -81.49965 7.439576 0.9462454 0.02156733 -0 9.509182 -0 -12.96461 -7.91444 -1.412434 -0.02935085 -11.75995 -4.749363 -0 47.65584 -0 0.9165072 -2.996705 15.94496 -1.529887 -2.62812 6.331323 -0.008530207 13.77025 -5.802982 0.04049347 21.67774 6.207232 6.68602 -17.18762 3.407948 4.735982 -21.94438 12.85348 82.74613 26.51699 -13.1959 -0 0 20.60356 -19.96797 8.99959 7.34617 7.818232 -24.37412 -6.977239 -92.96473 8.079131 22.63272 0 0 -5.244696 20.01945 13.74051 -14.64173
-1209.843 109.3651 2222.998 -7.104454 -0.3350701 -82.2911 7.076792 5.061612 -0.1481371 -0 7.424806 -0 -12.37273 -11.0894 -1.319073 1.082925 -16.49624 -3.834404 -0 40.22276 -0 1.651439 -2.802715 16.73018 -1.475778 -2.641034 6.498099 0.009340128 13.82115 -5.729986 0.03473754 21.7039 5.971682 6.443873 -17.29319 3.301967 4.561938 -22.46491 12.84754 82.63228 26.23559 -12.52595 -0 0 21.21629 -19.97451 8.910472 7.72104 7.394792 -24.02466 -6.923651 -93.51113 8.487807 23.98177 0 0 -3.955594 19.05481 13.91387 -13.26704
-1214.595 108.7132 2224.053 -6.831149 -0.3329495 -83.02657 6.494971 8.80388 -0.1787817 -0 6.230321 -0 -11.67514 -13.91628 -1.327054 1.971355 -19.87181 -3.330288 -0 31.32044 -0 2.207834 -2.789645 17.41945 -1.420312 -2.640886 6.658468 0.002743625 13.85964 -5.630167 0.04729144 21.73873 5.738891 6.195132 -17.355 3.216591 4.369892 -22.95319 12.83529 82.52414 25.95452 -11.83055 -0 0 21.81251 -20.0591 8.894294 8.127113 6.983423 -23.65939 -6.870606 -94.02593 8.887446 25.26366 0 0 -2.769654 18.07046 14.10339 -11.87342
-1219.501 107.6769 2225.232 -6.516132 -0.3569273 -83.68611 5.705638 12.15751 -0.04983683 -0 6.506976 -0 -11.02981 -15.85065 -1.393078 2.416948 -21.67801 -3.395013 -0 22.59066 -0 2.473324 -2.861896 18.06203 -1.368861 -2.628694 6.803895 -0.02383582 13.88178 -5.512741 0.0749724 21.77628 5.526843 5.959193 -17.37841 3.158231 4.180533 -23.37818 12.81844 82.4194 25.70108 -11.15549 -0 0 22.35877 -20.19608 8.937998 8.529285 6.614195 -23.30059 -6.815575 -94.47873 9.249527 26.39799 0 0 -1.75039 17.14548 14.28391 -10.57089
-1224.654 106.4613 2226.524 -6.345989 -0.4529842 -84.26679 4.764907 15.072 0.1684847 -0 8.515038 -0 -10.59174 -16.38123 -1.419986 2.313975 -21.97786 -4.040314 -0 15.40477 -0 2.435204 -2.999988 18.70756 -1.32774 -2.604732 6.923325 -0.06305191 13.88375 -5.389162 0.1122108 21.81563 5.352521 5.754775 -17.37361 3.129682 4.012164 -23.71026 12.79811 82.32032 25.4995 -10.54656 -0 0 22.81009 -20.35895 9.015521 8.894957 6.311186 -22.97113 -6.758008 -94.84259 9.556709 27.31083 0 0 -0.9404161 16.35076 14.43701 -9.456875
-1230.11 105.3017 2227.91 -6.423343 -0.6340223 -84.77314 3.756369 17.45324 0.3566888 -0 12.22245 -0 -10.48343 -15.18801 -1.291528 1.69386 -21.01888 -5.144324 -0 10.59646 -0 2.140767 -3.231575 19.36368 -1.302696 -2.56875 7.006483 -0.1069183 13.86264 -5.270054 0.1527866 21.85965 5.228424 5.596147 -17.35227 3.13022 3.877896 -23.92761 12.7748 82.23099 25.36714 -10.03878 -0 0 23.12373 -20.52534 9.096492 9.200125 6.088767 -22.68897 -6.698693 -95.09992 9.803508 27.95039 0 0 -0.3555298 15.73573 14.55289 -8.598485
